<?xml version="1.0" encoding="utf-8"?>
<!-- Generator: Adobe Illustrator 19.0.0, SVG Export Plug-In . SVG Version: 6.00 Build 0)  -->
<svg version="1.1" id="Layer_1" xmlns="http://www.w3.org/2000/svg" xmlns:xlink="http://www.w3.org/1999/xlink" x="0px" y="0px"
	 viewBox="0 0 162.5 36.7" enable-background="new 0 0 162.5 36.7" xml:space="preserve">
<font horiz-adv-x="1000">
<!-- Copyright 1985, 1987, 1988, 1994, 1999, 2002 Adobe Systems Incorporated. All Rights Reserved. Helvetica is a trademark of Heidelberger Druckmaschinen AG, exclusively licensed through Linotype Library GmbH, and may be registered in certain jurisdictions. -->
<font-face font-family="HelveticaLTStd-Light" units-per-em="1000" underline-position="-100" underline-thickness="50"/>
<missing-glyph horiz-adv-x="500" d="M0,0l500,0l0,700l-500,0M250,395l-170,255l340,0M280,350l170,255l0,-510M80,50l170,255l170,-255M50,605l170,-255l-170,-255z"/>
<glyph unicode="A" horiz-adv-x="667" d="M85,0l85,226l328,0l83,-226l70,0l-276,720l-77,0l-283,-720M334,662l141,-378l-282,0z"/>
<glyph unicode="&#xC6;" horiz-adv-x="1000" d="M73,0l96,226l303,0l0,-226l488,0l0,58l-420,0l0,286l371,0l0,58l-371,0l0,260l408,0l0,58l-630,0l-313,-720M358,662l114,0l0,-378l-275,0z"/>
<glyph unicode="&#xC1;" horiz-adv-x="667" d="M85,0l85,226l328,0l83,-226l70,0l-276,720l-77,0l-283,-720M334,662l141,-378l-282,0M327,776l137,139l-77,0l-111,-139z"/>
<glyph unicode="&#xC2;" horiz-adv-x="667" d="M85,0l85,226l328,0l83,-226l70,0l-276,720l-77,0l-283,-720M334,662l141,-378l-282,0M338,878l82,-102l65,0l-113,139l-67,0l-114,-139l65,0z"/>
<glyph unicode="&#xC4;" horiz-adv-x="667" d="M85,0l85,226l328,0l83,-226l70,0l-276,720l-77,0l-283,-720M334,662l141,-378l-282,0M227,786l65,0l0,102l-65,0M386,786l65,0l0,102l-65,0z"/>
<glyph unicode="&#xC0;" horiz-adv-x="667" d="M85,0l85,226l328,0l83,-226l70,0l-276,720l-77,0l-283,-720M334,662l141,-378l-282,0M350,776l51,0l-111,139l-78,0z"/>
<glyph unicode="&#xC5;" horiz-adv-x="667" d="M85,0l85,226l328,0l83,-226l70,0l-276,720l-77,0l-283,-720M334,662l141,-378l-282,0M354,780C408,780 453,825 453,879C453,932 408,979 354,979C301,979 254,932 254,879C254,825 300,780 354,780M354,813C319,813 287,843 287,879C287,915 318,946 354,946C390,946 420,914 420,879C420,844 389,813 354,813z"/>
<glyph unicode="&#xC3;" horiz-adv-x="667" d="M85,0l85,226l328,0l83,-226l70,0l-276,720l-77,0l-283,-720M334,662l141,-378l-282,0M219,788C227,813 238,837 268,837C314,837 359,792 414,792C452,792 474,820 488,852C491,864 495,877 496,890l-38,0C453,866 443,840 414,840C379,840 328,876 291,883C257,891 223,875 203,847C193,831 185,812 183,788z"/>
<glyph unicode="B" horiz-adv-x="667" d="M149,344l181,0C458,344 542,322 542,203C542,78 472,58 322,58l-173,0M149,662l157,0C455,662 509,629 509,539C509,452 463,402 321,402l-172,0M375,0C512,0 610,53 610,203C610,298 561,367 462,382l0,2C520,394 577,439 577,539C577,647 510,720 341,720l-260,0l0,-720z"/>
<glyph unicode="C" horiz-adv-x="722" d="M662,511C639,660 531,739 383,739C192,739 48,635 48,360C48,156 136,-19 358,-19C551,-19 638,98 670,237l-71,0C572,123 495,39 371,39C175,39 116,201 116,362C116,532 191,681 365,681C488,681 564,634 592,511z"/>
<glyph unicode="&#xC7;" horiz-adv-x="722" d="M662,511C639,660 531,739 383,739C192,739 48,635 48,360C48,164 129,-5 332,-18l-47,-64l15,-13C315,-91 329,-87 344,-87C369,-87 394,-99 394,-126C394,-160 357,-173 328,-173C306,-173 285,-165 264,-158l-15,-30C278,-199 309,-207 340,-207C404,-207 463,-177 450,-105C446,-80 417,-53 373,-53C361,-53 349,-56 337,-59l33,41C555,-14 639,101 670,237l-71,0C572,123 495,39 371,39C175,39 116,201 116,362C116,532 191,681 365,681C488,681 564,634 592,511z"/>
<glyph unicode="D" horiz-adv-x="722" d="M327,0C422,0 516,14 582,88C648,160 669,266 669,361C669,457 644,597 549,666C482,715 407,720 327,720l-246,0l0,-720M149,662l163,0C372,662 434,658 477,635C578,581 601,466 601,361C601,263 577,140 481,91C426,62 373,58 312,58l-163,0z"/>
<glyph unicode="&#x2206;" horiz-adv-x="646" d="M33,0l580,0l0,44l-257,668l-65,0l-258,-669M90,47l167,426C275,526 309,606 319,644l4,0C336,597 375,510 393,457l158,-410z"/>
<glyph unicode="E" horiz-adv-x="611" d="M570,0l0,58l-421,0l0,286l371,0l0,58l-371,0l0,260l411,0l0,58l-479,0l0,-720z"/>
<glyph unicode="&#xC9;" horiz-adv-x="611" d="M570,0l0,58l-421,0l0,286l371,0l0,58l-371,0l0,260l411,0l0,58l-479,0l0,-720M299,776l137,139l-77,0l-111,-139z"/>
<glyph unicode="&#xCA;" horiz-adv-x="611" d="M570,0l0,58l-421,0l0,286l371,0l0,58l-371,0l0,260l411,0l0,58l-479,0l0,-720M310,878l82,-102l65,0l-113,139l-67,0l-114,-139l65,0z"/>
<glyph unicode="&#xCB;" horiz-adv-x="611" d="M570,0l0,58l-421,0l0,286l371,0l0,58l-371,0l0,260l411,0l0,58l-479,0l0,-720M199,786l65,0l0,102l-65,0M358,786l65,0l0,102l-65,0z"/>
<glyph unicode="&#xC8;" horiz-adv-x="611" d="M570,0l0,58l-421,0l0,286l371,0l0,58l-371,0l0,260l411,0l0,58l-479,0l0,-720M322,776l51,0l-111,139l-78,0z"/>
<glyph unicode="&#xD0;" horiz-adv-x="722" d="M149,662l163,0C372,662 434,658 477,635C578,581 601,466 601,361C601,263 577,140 481,91C426,62 373,58 312,58l-163,0l0,295l161,0l0,58l-161,0M81,411l-71,0l0,-58l71,0l0,-353l246,0C422,0 516,14 582,88C648,160 669,266 669,361C669,457 644,597 549,666C482,715 407,720 327,720l-246,0z"/>
<glyph unicode="&#x20AC;" horiz-adv-x="556" d="M19,236l86,0C133,47 234,-14 341,-14C410,-14 471,18 508,65l0,84C467,82 409,40 341,40C239,40 188,121 170,236l233,0l20,54l-259,0C163,308 162,327 162,346C162,360 163,374 163,388l296,0l20,54l-311,0C184,564 236,651 341,651C416,651 483,612 507,513l28,76C514,637 466,705 341,705C232,705 128,641 104,442l-64,0l-19,-54l78,0C98,374 98,360 98,345C98,326 99,308 100,290l-61,0z"/>
<glyph unicode="F" horiz-adv-x="556" d="M142,0l0,344l360,0l0,58l-360,0l0,260l396,0l0,58l-464,0l0,-720z"/>
<glyph unicode="G" horiz-adv-x="778" d="M630,314C629,260 622,210 599,165C552,72 460,39 382,39C217,39 121,178 121,337C121,541 201,681 391,681C498,681 593,619 617,511l70,0C656,665 537,739 386,739C159,739 53,575 53,364C53,108 186,-19 368,-19C510,-19 587,37 637,123l0,-123l58,0l0,372l-308,0l0,-58z"/>
<glyph unicode="H" horiz-adv-x="722" d="M148,0l0,353l426,0l0,-353l68,0l0,720l-68,0l0,-309l-426,0l0,309l-68,0l0,-720z"/>
<glyph unicode="I" horiz-adv-x="278" d="M173,0l0,720l-68,0l0,-720z"/>
<glyph unicode="&#xCD;" horiz-adv-x="278" d="M173,0l0,720l-68,0l0,-720M112,776l137,139l-77,0l-111,-139z"/>
<glyph unicode="&#xCE;" horiz-adv-x="278" d="M173,0l0,720l-68,0l0,-720M123,878l82,-102l65,0l-113,139l-67,0l-114,-139l65,0z"/>
<glyph unicode="&#xCF;" horiz-adv-x="278" d="M173,0l0,720l-68,0l0,-720M12,786l65,0l0,102l-65,0M171,786l65,0l0,102l-65,0z"/>
<glyph unicode="&#xCC;" horiz-adv-x="278" d="M173,0l0,720l-68,0l0,-720M156,776l51,0l-111,139l-78,0z"/>
<glyph unicode="J" horiz-adv-x="500" d="M22,228C22,100 50,-19 212,-19C351,-19 415,58 415,197l0,523l-68,0l0,-521C347,98 313,43 220,43C94,43 89,138 90,228z"/>
<glyph unicode="K" horiz-adv-x="667" d="M153,0l0,278l113,113l300,-391l83,0l-334,433l284,287l-77,0l-369,-373l0,373l-68,0l0,-720z"/>
<glyph unicode="L" horiz-adv-x="556" d="M535,0l0,58l-386,0l0,662l-68,0l0,-720z"/>
<glyph unicode="&#x141;" horiz-adv-x="556" d="M535,0l0,58l-386,0l0,352l81,40l0,60l-81,-40l0,250l-68,0l0,-300l-81,-40l0,-60l81,40l0,-360z"/>
<glyph unicode="M" horiz-adv-x="833" d="M146,0l0,642l2,0l237,-642l64,0l236,642l2,0l0,-642l68,0l0,720l-103,0l-232,-635l-2,0l-236,635l-104,0l0,-720z"/>
<glyph unicode="N" horiz-adv-x="722" d="M563,0l79,0l0,720l-68,0l0,-629l-2,0l-416,629l-77,0l0,-720l68,0l0,628l2,0z"/>
<glyph unicode="&#xD1;" horiz-adv-x="722" d="M563,0l79,0l0,720l-68,0l0,-629l-2,0l-416,629l-77,0l0,-720l68,0l0,628l2,0M247,788C255,813 266,837 296,837C342,837 387,792 442,792C480,792 502,820 516,852C519,864 523,877 524,890l-38,0C481,866 471,840 442,840C407,840 356,876 319,883C285,891 251,875 231,847C221,831 213,812 211,788z"/>
<glyph unicode="O" horiz-adv-x="778" d="M53,359C53,152 166,-19 388,-19C610,-19 724,152 724,359C724,570 610,739 385,739C170,739 52,569 53,359M389,39C201,39 121,189 121,359C121,526 202,681 387,681C553,681 656,559 656,359C656,191 576,39 389,39z"/>
<glyph unicode="&#x152;" horiz-adv-x="1000" d="M547,221C547,169 539,128 498,93C460,61 404,39 354,39C182,39 109,173 109,361C109,572 195,681 346,681C471,681 547,617 547,498M550,0l417,0l0,58l-352,0l0,286l320,0l0,58l-320,0l0,260l342,0l0,58l-407,0l0,-76C504,720 431,739 346,739C132,739 41,568 41,359C41,163 129,-19 349,-19C446,-19 503,24 550,72z"/>
<glyph unicode="&#xD3;" horiz-adv-x="778" d="M53,359C53,152 166,-19 388,-19C610,-19 724,152 724,359C724,570 610,739 385,739C170,739 52,569 53,359M389,39C201,39 121,189 121,359C121,526 202,681 387,681C553,681 656,559 656,359C656,191 576,39 389,39M383,776l137,139l-77,0l-111,-139z"/>
<glyph unicode="&#xD4;" horiz-adv-x="778" d="M53,359C53,152 166,-19 388,-19C610,-19 724,152 724,359C724,570 610,739 385,739C170,739 52,569 53,359M389,39C201,39 121,189 121,359C121,526 202,681 387,681C553,681 656,559 656,359C656,191 576,39 389,39M394,878l82,-102l65,0l-113,139l-67,0l-114,-139l65,0z"/>
<glyph unicode="&#xD6;" horiz-adv-x="778" d="M53,359C53,152 166,-19 388,-19C610,-19 724,152 724,359C724,570 610,739 385,739C170,739 52,569 53,359M389,39C201,39 121,189 121,359C121,526 202,681 387,681C553,681 656,559 656,359C656,191 576,39 389,39M283,786l65,0l0,102l-65,0M442,786l65,0l0,102l-65,0z"/>
<glyph unicode="&#xD2;" horiz-adv-x="778" d="M53,359C53,152 166,-19 388,-19C610,-19 724,152 724,359C724,570 610,739 385,739C170,739 52,569 53,359M389,39C201,39 121,189 121,359C121,526 202,681 387,681C553,681 656,559 656,359C656,191 576,39 389,39M406,776l51,0l-111,139l-78,0z"/>
<glyph unicode="&#x2126;" horiz-adv-x="725" d="M207,48l-154,0l0,-48l233,0l0,35C205,86 125,211 125,361C125,523 218,655 365,655C520,655 600,495 600,363C600,203 520,88 439,35l0,-35l233,0l0,48l-156,0l0,3C586,107 658,222 658,372C658,551 541,704 366,704C199,704 67,570 67,368C67,225 133,115 207,51z"/>
<glyph unicode="&#xD8;" horiz-adv-x="778" d="M174,147C136,205 118,279 118,359C118,525 199,681 384,681C476,681 534,646 572,604M604,560C638,502 653,429 653,359C653,190 573,39 386,39C309,39 249,65 207,107M614,652C552,713 472,739 382,739C172,739 50,572 50,359C50,257 77,165 131,98l-89,-101l39,-34l85,97C221,10 294,-19 385,-19C607,-19 721,152 721,359C721,478 687,569 649,612l87,100l-39,35z"/>
<glyph unicode="&#xD5;" horiz-adv-x="778" d="M53,359C53,152 166,-19 388,-19C610,-19 724,152 724,359C724,570 610,739 385,739C170,739 52,569 53,359M389,39C201,39 121,189 121,359C121,526 202,681 387,681C553,681 656,559 656,359C656,191 576,39 389,39M275,788C283,813 294,837 324,837C370,837 415,792 470,792C508,792 530,820 544,852C547,864 551,877 552,890l-38,0C509,866 499,840 470,840C435,840 384,876 347,883C313,891 279,875 259,847C249,831 241,812 239,788z"/>
<glyph unicode="P" horiz-adv-x="611" d="M146,0l0,318l154,0C433,318 576,358 576,519C576,627 528,720 341,720l-263,0l0,-720M146,376l0,286l176,0C450,662 508,614 508,524C508,402 429,376 302,376z"/>
<glyph unicode="Q" horiz-adv-x="778" d="M611,68C683,138 719,243 719,359C719,604 582,739 380,739C156,739 48,559 48,359C48,152 161,-19 383,-19C454,-19 514,-1 563,30l106,-82l38,46M464,181l-36,-47l82,-63C476,51 434,39 384,39C196,39 116,188 116,359C116,525 197,681 382,681C536,681 651,574 651,359C651,259 622,165 561,107z"/>
<glyph unicode="R" horiz-adv-x="667" d="M148,385l0,277l216,0C455,662 539,636 539,528C539,427 461,385 360,385M362,327C430,327 489,317 505,239C516,184 509,49 537,0l75,0l0,7C594,21 585,51 582,160C580,236 575,326 490,355C573,392 607,440 607,531C607,664 520,720 362,720l-282,0l0,-720l68,0l0,327z"/>
<glyph unicode="S" horiz-adv-x="611" d="M43,215C43,59 154,-19 304,-19C470,-19 567,59 567,191C567,470 159,336 128,522C116,596 166,681 304,681C396,681 481,634 481,524l65,0C547,641 466,739 304,739C143,739 60,646 60,546C60,263 499,411 499,188C499,109 445,39 316,39C206,39 120,86 109,215z"/>
<glyph unicode="&#x160;" horiz-adv-x="611" d="M43,215C43,59 154,-19 304,-19C470,-19 567,59 567,191C567,470 159,336 128,522C116,596 166,681 304,681C396,681 481,634 481,524l65,0C547,641 466,739 304,739C143,739 60,646 60,546C60,263 499,411 499,188C499,109 445,39 316,39C206,39 120,86 109,215M310,813l-82,102l-65,0l114,-139l67,0l113,139l-65,0z"/>
<glyph unicode="T" horiz-adv-x="556" d="M16,662l228,0l0,-662l68,0l0,662l228,0l0,58l-524,0z"/>
<glyph unicode="&#xDE;" horiz-adv-x="611" d="M146,0l0,168l154,0C433,168 576,208 576,369C576,477 528,570 341,570l-195,0l0,150l-68,0l0,-720M146,226l0,286l176,0C450,512 508,464 508,374C508,252 429,226 302,226z"/>
<glyph unicode="U" horiz-adv-x="722" d="M82,271C82,87 173,-19 361,-19C547,-19 640,84 640,271l0,449l-68,0l0,-429C572,121 516,39 361,39C214,39 150,113 150,291l0,429l-68,0z"/>
<glyph unicode="&#xDA;" horiz-adv-x="722" d="M82,271C82,87 173,-19 361,-19C547,-19 640,84 640,271l0,449l-68,0l0,-429C572,121 516,39 361,39C214,39 150,113 150,291l0,429l-68,0M355,776l137,139l-77,0l-111,-139z"/>
<glyph unicode="&#xDB;" horiz-adv-x="722" d="M82,271C82,87 173,-19 361,-19C547,-19 640,84 640,271l0,449l-68,0l0,-429C572,121 516,39 361,39C214,39 150,113 150,291l0,429l-68,0M366,878l82,-102l65,0l-113,139l-67,0l-114,-139l65,0z"/>
<glyph unicode="&#xDC;" horiz-adv-x="722" d="M82,271C82,87 173,-19 361,-19C547,-19 640,84 640,271l0,449l-68,0l0,-429C572,121 516,39 361,39C214,39 150,113 150,291l0,429l-68,0M255,786l65,0l0,102l-65,0M414,786l65,0l0,102l-65,0z"/>
<glyph unicode="&#xD9;" horiz-adv-x="722" d="M82,271C82,87 173,-19 361,-19C547,-19 640,84 640,271l0,449l-68,0l0,-429C572,121 516,39 361,39C214,39 150,113 150,291l0,429l-68,0M378,776l51,0l-111,139l-78,0z"/>
<glyph unicode="V" horiz-adv-x="611" d="M268,0l75,0l250,720l-71,0l-216,-640l-217,640l-71,0z"/>
<glyph unicode="W" horiz-adv-x="889" d="M482,720l-76,0l-167,-624l-2,0l-155,624l-68,0l186,-720l75,0l167,636l2,0l167,-636l75,0l189,720l-70,0l-157,-624l-2,0z"/>
<glyph unicode="X" horiz-adv-x="611" d="M514,0l78,0l-247,370l236,350l-79,0l-198,-303l-197,303l-79,0l238,-350l-248,-370l77,0l209,318z"/>
<glyph unicode="Y" horiz-adv-x="611" d="M90,720l-78,0l257,-411l0,-309l68,0l0,314l261,406l-79,0l-217,-347z"/>
<glyph unicode="&#xDD;" horiz-adv-x="611" d="M90,720l-78,0l257,-411l0,-309l68,0l0,314l261,406l-79,0l-217,-347M299,776l137,139l-77,0l-111,-139z"/>
<glyph unicode="&#x178;" horiz-adv-x="611" d="M90,720l-78,0l257,-411l0,-309l68,0l0,314l261,406l-79,0l-217,-347M199,786l65,0l0,102l-65,0M358,786l65,0l0,102l-65,0z"/>
<glyph unicode="Z" horiz-adv-x="611" d="M579,0l0,58l-464,0l461,605l0,57l-506,0l0,-58l422,0l-461,-605l0,-57z"/>
<glyph unicode="&#x17D;" horiz-adv-x="611" d="M579,0l0,58l-464,0l461,605l0,57l-506,0l0,-58l422,0l-461,-605l0,-57M310,813l-82,102l-65,0l114,-139l67,0l113,139l-65,0z"/>
<glyph unicode="a" horiz-adv-x="556" d="M411,191C411,86 317,40 222,40C165,40 110,70 110,133C110,203 165,236 256,243C308,247 360,251 411,272M227,291C106,275 46,222 46,135C46,35 128,-14 219,-14C294,-14 362,16 412,72C413,36 420,1 460,-5C469,-7 477,-8 487,-8C504,-8 525,-1 534,2l0,47C483,31 471,42 471,89l0,282C471,491 388,532 283,532C170,532 79,483 70,361l61,0C142,451 199,478 282,478C375,478 411,434 411,373C411,355 409,328 389,319C369,310 332,304 310,302z"/>
<glyph unicode="&#xE1;" horiz-adv-x="556" d="M411,191C411,86 317,40 222,40C165,40 110,70 110,133C110,203 165,236 256,243C308,247 360,251 411,272M227,291C106,275 46,222 46,135C46,35 128,-14 219,-14C294,-14 362,16 412,72C413,36 420,1 460,-5C469,-7 477,-8 487,-8C504,-8 525,-1 534,2l0,47C483,31 471,42 471,89l0,282C471,491 388,532 283,532C170,532 79,483 70,361l61,0C142,451 199,478 282,478C375,478 411,434 411,373C411,355 409,328 389,319C369,310 332,304 310,302M272,574l137,139l-77,0l-111,-139z"/>
<glyph unicode="&#xE2;" horiz-adv-x="556" d="M411,191C411,86 317,40 222,40C165,40 110,70 110,133C110,203 165,236 256,243C308,247 360,251 411,272M227,291C106,275 46,222 46,135C46,35 128,-14 219,-14C294,-14 362,16 412,72C413,36 420,1 460,-5C469,-7 477,-8 487,-8C504,-8 525,-1 534,2l0,47C483,31 471,42 471,89l0,282C471,491 388,532 283,532C170,532 79,483 70,361l61,0C142,451 199,478 282,478C375,478 411,434 411,373C411,355 409,328 389,319C369,310 332,304 310,302M283,676l82,-102l65,0l-113,139l-67,0l-114,-139l65,0z"/>
<glyph unicode="&#xB4;" horiz-adv-x="333" d="M160,574l137,139l-77,0l-111,-139z"/>
<glyph unicode="&#xE4;" horiz-adv-x="556" d="M411,191C411,86 317,40 222,40C165,40 110,70 110,133C110,203 165,236 256,243C308,247 360,251 411,272M227,291C106,275 46,222 46,135C46,35 128,-14 219,-14C294,-14 362,16 412,72C413,36 420,1 460,-5C469,-7 477,-8 487,-8C504,-8 525,-1 534,2l0,47C483,31 471,42 471,89l0,282C471,491 388,532 283,532C170,532 79,483 70,361l61,0C142,451 199,478 282,478C375,478 411,434 411,373C411,355 409,328 389,319C369,310 332,304 310,302M172,584l65,0l0,102l-65,0M331,584l65,0l0,102l-65,0z"/>
<glyph unicode="&#xE6;" horiz-adv-x="889" d="M393,204C393,107 332,40 211,40C145,40 103,74 103,141C103,271 299,224 393,274M457,295C457,368 499,478 625,478C730,478 783,394 783,295M219,295C98,282 39,222 39,132C39,32 113,-14 206,-14C335,-14 386,48 424,100C471,22 534,-14 624,-14C740,-14 817,49 843,160l-63,0C760,86 708,40 629,40C506,40 457,133 457,245l390,0C847,404 800,532 627,532C548,532 491,514 446,447C417,516 333,532 265,532C156,532 68,481 61,364l62,0C133,447 187,478 267,478C359,478 393,453 393,365C393,324 379,312 276,301z"/>
<glyph unicode="&#x2113;" horiz-adv-x="475" d="M420,136C396,91 347,37 281,37C221,37 165,83 164,205l0,30C289,357 374,478 374,606C374,692 336,762 255,762C187,762 110,711 110,529l0,-279C86,226 59,205 31,181l20,-36C71,162 92,180 110,194l0,-13C113,80 158,-9 271,-9C348,-9 409,34 450,112M164,535C164,671 214,718 254,718C310,718 331,670 331,603C331,496 257,394 164,294z"/>
<glyph unicode="&#xE0;" horiz-adv-x="556" d="M411,191C411,86 317,40 222,40C165,40 110,70 110,133C110,203 165,236 256,243C308,247 360,251 411,272M227,291C106,275 46,222 46,135C46,35 128,-14 219,-14C294,-14 362,16 412,72C413,36 420,1 460,-5C469,-7 477,-8 487,-8C504,-8 525,-1 534,2l0,47C483,31 471,42 471,89l0,282C471,491 388,532 283,532C170,532 79,483 70,361l61,0C142,451 199,478 282,478C375,478 411,434 411,373C411,355 409,328 389,319C369,310 332,304 310,302M295,574l51,0l-111,139l-78,0z"/>
<glyph unicode="&amp;" horiz-adv-x="667" d="M454,131C406,74 348,35 271,35C179,35 109,95 109,190C109,268 170,338 249,375M378,540C358,495 312,469 272,445C246,476 197,537 197,580C197,633 243,666 293,666C368,666 402,594 378,540M307,400C382,445 449,485 449,581C449,657 387,720 298,720C210,720 136,670 136,579C136,516 174,463 213,418C121,375 41,303 41,195C41,66 141,-19 266,-19C362,-19 431,10 493,85l70,-85l81,0l-117,138C563,194 574,261 577,326l-59,0C518,277 513,228 488,186z"/>
<glyph unicode="&#x2248;" horiz-adv-x="568" d="M492,421C464,371 437,346 395,346C357,346 333,362 297,380C269,395 232,423 183,423C127,423 79,388 48,330l27,-21C101,349 129,384 177,384C211,384 241,367 273,350C322,323 350,307 392,307C454,307 492,349 518,399M492,256C463,206 437,182 395,182C357,182 331,198 297,217C269,231 233,258 183,258C127,258 79,224 48,165l27,-21C100,184 129,220 177,220C211,220 241,203 273,186C322,159 350,143 392,143C455,143 492,185 518,234z"/>
<glyph unicode="&#xE5;" horiz-adv-x="556" d="M411,191C411,86 317,40 222,40C165,40 110,70 110,133C110,203 165,236 256,243C308,247 360,251 411,272M227,291C106,275 46,222 46,135C46,35 128,-14 219,-14C294,-14 362,16 412,72C413,36 420,1 460,-5C469,-7 477,-8 487,-8C504,-8 525,-1 534,2l0,47C483,31 471,42 471,89l0,282C471,491 388,532 283,532C170,532 79,483 70,361l61,0C142,451 199,478 282,478C375,478 411,434 411,373C411,355 409,328 389,319C369,310 332,304 310,302M279,578C333,578 378,623 378,677C378,730 333,777 279,777C226,777 179,730 179,677C179,623 225,578 279,578M279,611C244,611 212,641 212,677C212,713 243,744 279,744C315,744 345,712 345,677C345,642 314,611 279,611z"/>
<glyph unicode="^" horiz-adv-x="660" d="M131,245l197,392l201,-392l57,0l-231,453l-52,0l-230,-453z"/>
<glyph unicode="~" horiz-adv-x="660" d="M221,324C150,324 109,264 80,221l33,-47C136,213 168,268 221,268C250,268 279,249 305,238C339,224 403,196 440,196C507,196 552,251 580,305l-40,34C521,303 486,252 441,252C415,252 378,270 338,288C299,306 257,324 221,324z"/>
<glyph unicode="*" horiz-adv-x="389" d="M62,646l-18,-42l112,-40l-77,-101l35,-27l78,106l74,-108l39,24l-75,106l114,37l-15,44l-114,-42l0,117l-42,0l0,-117z"/>
<glyph unicode="@" horiz-adv-x="800" d="M684,167C624,81 522,31 419,31C239,31 100,175 100,356C100,537 232,689 417,689C568,689 700,589 700,426C700,320 624,183 541,183C501,183 509,220 524,264l101,302l-67,0l-15,-46C523,563 478,586 431,586C283,586 183,417 183,283C183,201 236,133 322,133C364,133 411,152 441,183C453,147 492,131 527,131C634,131 760,265 760,423C760,606 607,739 415,739C212,739 40,571 40,363C40,152 205,-19 419,-19C550,-19 680,51 743,167M337,196C286,196 259,240 259,288C259,379 327,527 433,527C474,527 502,493 502,454C502,364 428,197 337,196z"/>
<glyph unicode="&#xE3;" horiz-adv-x="556" d="M411,191C411,86 317,40 222,40C165,40 110,70 110,133C110,203 165,236 256,243C308,247 360,251 411,272M227,291C106,275 46,222 46,135C46,35 128,-14 219,-14C294,-14 362,16 412,72C413,36 420,1 460,-5C469,-7 477,-8 487,-8C504,-8 525,-1 534,2l0,47C483,31 471,42 471,89l0,282C471,491 388,532 283,532C170,532 79,483 70,361l61,0C142,451 199,478 282,478C375,478 411,434 411,373C411,355 409,328 389,319C369,310 332,304 310,302M164,586C172,611 183,635 213,635C259,635 304,590 359,590C397,590 419,618 433,650C436,662 440,675 441,688l-38,0C398,664 388,638 359,638C324,638 273,674 236,681C202,689 168,673 148,645C138,629 130,610 128,586z"/>
<glyph unicode="b" horiz-adv-x="611" d="M139,261C139,378 205,478 314,478C438,478 496,373 491,243C490,113 415,40 314,40C201,40 139,136 139,261M139,91l2,0C176,23 255,-14 321,-14C488,-14 555,105 555,258C555,403 482,532 324,532C251,532 177,498 139,435l0,285l-60,0l0,-720l60,0z"/>
<glyph unicode="\" horiz-adv-x="278" d="M225,-90l56,0l-235,829l-56,0z"/>
<glyph unicode="|" horiz-adv-x="222" d="M81,750l0,-1000l60,0l0,1000z"/>
<glyph unicode="{" horiz-adv-x="333" d="M127,395C127,329 119,296 45,275l0,-2C113,260 127,218 127,157l0,-204C127,-149 161,-193 279,-191l0,2C216,-171 191,-135 191,-68l0,206C191,213 175,258 109,273l0,2C179,294 191,347 191,424l0,192C191,678 217,718 272,737C157,741 127,695 127,577z"/>
<glyph unicode="}" horiz-adv-x="333" d="M203,599C203,701 169,745 51,743l0,-2C114,723 139,687 139,620l0,-206C139,339 155,294 221,279l0,-2C151,258 139,205 139,128l0,-192C139,-126 113,-166 58,-185C173,-189 203,-143 203,-25l0,182C203,223 211,256 285,277l0,2C217,292 203,334 203,395z"/>
<glyph unicode="[" horiz-adv-x="333" d="M280,-191l0,50l-125,0l0,830l127,0l0,50l-191,0l0,-930z"/>
<glyph unicode="]" horiz-adv-x="333" d="M242,739l-189,0l0,-50l125,0l0,-830l-127,0l0,-50l191,0z"/>
<glyph unicode="&#x2D8;" horiz-adv-x="333" d="M28,706C34,627 88,580 167,580C249,580 307,622 316,706l-37,0C265,650 228,625 172,625C117,625 78,651 67,706z"/>
<glyph unicode="&#xA6;" horiz-adv-x="222" d="M81,675l0,-350l60,0l0,350M81,175l0,-350l60,0l0,350z"/>
<glyph unicode="&#x2022;" horiz-adv-x="500" d="M430,359C430,459 349,540 249,540C151,540 70,459 70,359C70,261 151,180 249,180C349,180 430,261 430,359z"/>
<glyph unicode="c" horiz-adv-x="556" d="M500,355C482,475 404,532 285,532C130,532 47,402 47,258C47,105 120,-14 285,-14C415,-14 487,64 508,179l-64,0C430,93 374,40 285,40C161,40 111,149 111,258C111,366 162,478 285,478C365,478 418,432 439,355z"/>
<glyph unicode="&#x2C7;" horiz-adv-x="333" d="M171,611l-82,102l-65,0l114,-139l67,0l113,139l-65,0z"/>
<glyph unicode="&#xE7;" horiz-adv-x="556" d="M500,355C482,475 404,532 285,532C130,532 47,402 47,258C47,115 111,2 254,-11l-52,-71l15,-13C232,-91 246,-87 261,-87C286,-87 311,-99 311,-126C311,-160 274,-173 245,-173C223,-173 202,-165 181,-158l-15,-30C195,-199 226,-207 257,-207C321,-207 380,-177 367,-105C363,-80 334,-53 290,-53C278,-53 266,-56 254,-59l36,45C417,-11 487,66 508,179l-64,0C430,93 374,40 285,40C161,40 111,149 111,258C111,366 162,478 285,478C365,478 418,432 439,355z"/>
<glyph unicode="&#xB8;" horiz-adv-x="333" d="M54,-188C83,-199 114,-207 145,-207C209,-207 268,-177 255,-105C251,-80 222,-53 178,-53C166,-53 154,-56 142,-59l47,59l-39,0l-60,-82l15,-13C120,-91 134,-87 149,-87C174,-87 199,-99 199,-126C199,-160 162,-173 133,-173C111,-173 90,-165 69,-158z"/>
<glyph unicode="&#xA2;" horiz-adv-x="556" d="M191,68C134,105 109,182 109,258C109,366 160,478 283,478C297,478 311,477 324,473M367,456C401,435 425,400 437,355l61,0C486,435 447,487 386,513l44,134l-48,0l-40,-120C324,530 304,532 283,532C147,532 45,434 45,258C45,145 85,51 172,9l-49,-150l47,0l45,135C236,-11 258,-14 283,-14C415,-14 491,76 506,179l-64,0C428,93 372,40 283,40C265,40 248,43 232,47z"/>
<glyph unicode="&#x2C6;" horiz-adv-x="333" d="M171,676l82,-102l65,0l-113,139l-67,0l-114,-139l65,0z"/>
<glyph unicode=":" horiz-adv-x="278" d="M175,0l0,88l-73,0l0,-88M175,404l0,88l-73,0l0,-88z"/>
<glyph unicode="," horiz-adv-x="278" d="M175,88l-73,0l0,-88l34,0l0,-34C136,-74 118,-90 102,-100l0,-37C144,-124 175,-88 175,-30z"/>
<glyph unicode="&#xA9;" horiz-adv-x="800" d="M401,-19C610,-19 779,151 779,361C779,569 610,739 401,739C191,739 21,569 21,361C21,151 191,-19 401,-19M401,31C216,31 81,175 81,361C81,545 216,689 401,689C585,689 719,545 719,361C719,175 585,31 401,31M539,292C531,229 477,189 418,189C320,189 266,274 266,365C266,459 316,537 416,537C476,537 528,498 539,438l54,0C579,529 506,581 415,581C286,581 208,489 208,364C208,240 291,145 418,145C505,145 584,201 593,292z"/>
<glyph unicode="&#xA4;" horiz-adv-x="556" d="M32,110l52,-53l44,43C172,69 218,50 273,50C330,50 383,67 428,100l44,-43l52,53l-43,42C512,198 529,239 529,295C529,356 515,402 481,451l43,43l-52,53l-44,-43C383,535 337,553 282,553C226,553 173,538 128,504l-44,43l-52,-53l43,-43C41,403 27,359 27,300C27,243 43,199 75,152M282,481C379,483 458,398 458,303C458,201 376,121 276,121C180,121 97,203 99,300C97,404 178,483 282,481z"/>
<glyph unicode="d" horiz-adv-x="611" d="M472,261C472,136 410,40 297,40C196,40 121,113 120,243C115,373 173,478 297,478C406,478 472,378 472,261M472,435C434,498 360,532 287,532C129,532 56,403 56,258C56,105 123,-14 290,-14C356,-14 435,23 470,91l2,0l0,-91l60,0l0,720l-60,0z"/>
<glyph unicode="&#x2020;" horiz-adv-x="556" d="M248,-166l60,0l0,602l211,0l0,54l-211,0l0,230l-60,0l0,-230l-211,0l0,-54l211,0z"/>
<glyph unicode="&#x2021;" horiz-adv-x="556" d="M248,109l-211,0l0,-54l211,0l0,-221l60,0l0,221l211,0l0,54l-211,0l0,334l211,0l0,54l-211,0l0,223l-60,0l0,-223l-211,0l0,-54l211,0z"/>
<glyph unicode="&#xB0;" horiz-adv-x="400" d="M350,555C350,637 282,705 200,705C117,705 49,637 50,555C50,472 117,405 200,405C282,405 350,472 350,555M310,555C310,494 260,445 200,445C139,445 90,494 90,555C89,615 139,665 199,665C260,665 310,615 310,555z"/>
<glyph unicode="&#xA8;" horiz-adv-x="333" d="M60,584l65,0l0,102l-65,0M219,584l65,0l0,102l-65,0z"/>
<glyph unicode="&#xF7;" horiz-adv-x="660" d="M80,220l500,0l0,60l-500,0M367,0l0,88l-73,0l0,-88M367,412l0,88l-73,0l0,-88z"/>
<glyph unicode="$" horiz-adv-x="556" d="M255,394C181,415 120,438 120,526C120,600 180,651 255,651M302,322C387,304 454,279 454,180C454,96 385,35 302,35M302,-19C407,-16 518,52 518,169C518,320 433,354 302,385l0,266C374,651 431,602 432,529l65,0C493,642 412,706 302,705l0,61l-46,0l0,-61C148,708 56,634 56,523C56,397 145,359 255,332l0,-297C164,40 102,113 102,203l-65,0C38,187 39,171 42,154C66,43 144,-13 256,-19l0,-76l46,0z"/>
<glyph unicode="&#x2D9;" horiz-adv-x="333" d="M134,584l65,0l0,102l-65,0z"/>
<glyph unicode="&#x131;" horiz-adv-x="222" d="M138,0l0,518l-60,0l0,-518z"/>
<glyph unicode="e" horiz-adv-x="556" d="M109,295C121,393 177,478 283,478C391,478 447,396 447,295M511,245C512,431 425,532 283,532C135,532 45,408 45,257C45,104 117,-14 283,-14C415,-14 477,61 507,159l-67,0C422,83 361,40 283,40C168,40 108,133 109,245z"/>
<glyph unicode="&#xE9;" horiz-adv-x="556" d="M109,295C121,393 177,478 283,478C391,478 447,396 447,295M511,245C512,431 425,532 283,532C135,532 45,408 45,257C45,104 117,-14 283,-14C415,-14 477,61 507,159l-67,0C422,83 361,40 283,40C168,40 108,133 109,245M272,574l137,139l-77,0l-111,-139z"/>
<glyph unicode="&#xEA;" horiz-adv-x="556" d="M109,295C121,393 177,478 283,478C391,478 447,396 447,295M511,245C512,431 425,532 283,532C135,532 45,408 45,257C45,104 117,-14 283,-14C415,-14 477,61 507,159l-67,0C422,83 361,40 283,40C168,40 108,133 109,245M283,676l82,-102l65,0l-113,139l-67,0l-114,-139l65,0z"/>
<glyph unicode="&#xEB;" horiz-adv-x="556" d="M109,295C121,393 177,478 283,478C391,478 447,396 447,295M511,245C512,431 425,532 283,532C135,532 45,408 45,257C45,104 117,-14 283,-14C415,-14 477,61 507,159l-67,0C422,83 361,40 283,40C168,40 108,133 109,245M172,584l65,0l0,102l-65,0M331,584l65,0l0,102l-65,0z"/>
<glyph unicode="&#xE8;" horiz-adv-x="556" d="M109,295C121,393 177,478 283,478C391,478 447,396 447,295M511,245C512,431 425,532 283,532C135,532 45,408 45,257C45,104 117,-14 283,-14C415,-14 477,61 507,159l-67,0C422,83 361,40 283,40C168,40 108,133 109,245M295,574l51,0l-111,139l-78,0z"/>
<glyph unicode="8" horiz-adv-x="556" d="M279,345C373,345 448,297 448,198C448,104 376,40 283,40C176,40 108,107 108,194C108,298 181,345 279,345M276,651C373,651 419,609 419,538C419,438 360,399 283,399C205,399 133,437 133,524C133,607 197,651 276,651M167,379C87,348 44,278 44,194C44,56 162,-14 264,-14C414,-14 512,62 512,200C512,282 464,347 387,375C454,408 483,460 483,533C483,654 378,705 270,705C159,709 69,630 69,533C69,449 99,422 167,379z"/>
<glyph unicode="&#x2026;" horiz-adv-x="1000" d="M204,0l0,88l-73,0l0,-88M537,0l0,88l-73,0l0,-88M870,0l0,88l-73,0l0,-88z"/>
<glyph unicode="&#x2014;" horiz-adv-x="1000" d="M1000,238l0,44l-1000,0l0,-44z"/>
<glyph unicode="&#x2013;" horiz-adv-x="500" d="M500,282l-500,0l0,-44l500,0z"/>
<glyph unicode="=" horiz-adv-x="660" d="M580,378l-500,0l0,-60l500,0M580,184l-500,0l0,-60l500,0z"/>
<glyph unicode="&#x212E;" horiz-adv-x="867" d="M832,335l0,10C832,544 654,705 432,705C212,705 34,544 34,345C34,147 212,-13 432,-13C561,-13 677,42 748,126l-57,0C628,54 537,7 433,7C338,7 252,48 189,113C184,120 180,127 180,135l0,196C180,334 182,335 186,335M686,361C686,359 684,355 681,355l-495,0C182,355 180,359 180,361l0,192C180,563 184,572 190,578C253,642 339,683 433,683C528,683 613,643 676,581C682,575 686,566 686,558z"/>
<glyph unicode="&#xF0;" horiz-adv-x="556" d="M454,259C454,148 404,40 278,40C163,40 102,130 102,259C102,371 152,478 278,478C405,478 453,381 454,259M329,635C368,600 396,554 420,486C372,524 340,532 274,532C108,532 38,395 38,259C38,78 146,-12 278,-14C423,-14 518,95 518,259C518,436 461,578 368,666l59,48l-37,25l-55,-45C310,713 284,727 256,739l-41,-33C246,692 272,678 295,662l-65,-52l38,-24z"/>
<glyph unicode="!" horiz-adv-x="333" d="M144,181l45,0l14,315l0,224l-73,0l0,-224M203,0l0,88l-73,0l0,-88z"/>
<glyph unicode="&#xA1;" horiz-adv-x="333" d="M144,352l-14,-315l0,-224l73,0l0,224l-14,315M203,445l0,87l-73,0l0,-87z"/>
<glyph unicode="f" horiz-adv-x="278" d="M97,468l0,-468l60,0l0,468l100,0l0,50l-100,0l0,64C157,629 159,680 221,680C232,680 245,678 257,675l0,55C241,733 225,734 207,734C127,734 97,682 97,600l0,-82l-77,0l0,-50z"/>
<glyph unicode="&#xFB01;" horiz-adv-x="500" d="M92,468l0,-468l60,0l0,468l98,0l0,50l-98,0l0,64C152,629 154,680 216,680C227,680 240,678 252,675l0,55C236,733 220,734 202,734C122,734 92,682 92,600l0,-82l-79,0l0,-50M432,0l0,518l-60,0l0,-518M435,720l-66,0l0,-89l66,0z"/>
<glyph unicode="5" horiz-adv-x="556" d="M35,183C46,37 150,-14 283,-14C399,-14 506,72 506,220C506,365 412,453 283,453C219,453 183,443 128,407l44,237l296,0l0,54l-350,0l-57,-365l53,-7C153,377 204,399 267,399C374,399 442,325 442,220C442,120 378,40 273,40C181,40 112,88 99,183z"/>
<glyph unicode="&#xFB02;" horiz-adv-x="500" d="M92,468l0,-468l60,0l0,468l98,0l0,50l-98,0l0,64C152,629 154,680 216,680C227,680 240,678 252,675l0,55C236,733 220,734 202,734C122,734 92,682 92,600l0,-82l-79,0l0,-50M432,0l0,720l-60,0l0,-720z"/>
<glyph unicode="&#x192;" horiz-adv-x="556" d="M539,714C516,727 495,734 469,734C319,734 300,559 273,448l-121,0l0,-48l113,0l-29,-162C193,-1 163,-141 84,-141C61,-141 52,-140 32,-128l-19,-57C30,-191 50,-196 68,-196C195,-196 238,-77 266,64l64,336l123,0l0,48l-115,0C362,537 365,664 442,677C461,681 475,680 486,678C498,675 508,671 519,665z"/>
<glyph unicode="4" horiz-adv-x="556" d="M358,0l64,0l0,174l98,0l0,54l-98,0l0,470l-58,0l-328,-469l0,-55l322,0M358,602l0,-374l-259,0z"/>
<glyph unicode="&#x2044;" horiz-adv-x="167" d="M-113,-14l444,719l-51,0l-444,-719z"/>
<glyph unicode="g" horiz-adv-x="611" d="M472,257C472,140 406,40 297,40C173,40 115,145 120,275C121,405 196,478 297,478C410,478 472,382 472,257M472,427l-2,0C435,495 356,532 290,532C123,532 56,413 56,260C56,115 129,-14 287,-14C360,-14 434,20 472,83C475,-36 453,-158 289,-158C218,-158 152,-141 134,-63l-64,0C74,-125 137,-212 289,-212C486,-212 532,-89 532,50l0,468l-60,0z"/>
<glyph unicode="&#xDF;" horiz-adv-x="500" d="M211,375C338,375 395,325 395,199C395,80 309,26 211,44l0,-53C220,-12 235,-14 248,-14C380,-14 459,69 459,224C459,299 423,377 348,403C399,440 432,484 432,548C432,664 354,734 239,734C113,734 52,667 52,544l0,-544l60,0l0,533C112,621 125,680 242,680C331,680 368,624 368,549C368,457 300,427 211,425z"/>
<glyph unicode="`" horiz-adv-x="333" d="M183,574l51,0l-111,139l-78,0z"/>
<glyph unicode="&gt;" horiz-adv-x="660" d="M580,282l-500,223l0,-64l421,-186l-421,-197l0,-64l500,235z"/>
<glyph unicode="&#x2265;" horiz-adv-x="568" d="M58,586l0,-49l409,-196l0,-3l-409,-196l0,-48l455,225l0,41M514,10l0,42l-461,0l0,-42z"/>
<glyph unicode="&#xAB;" horiz-adv-x="556" d="M297,228l146,-111l0,62l-104,80l104,82l0,63l-146,-113M113,228l146,-111l0,62l-104,80l104,82l0,63l-146,-113z"/>
<glyph unicode="&#xBB;" horiz-adv-x="556" d="M443,293l-146,111l0,-62l104,-80l-104,-82l0,-63l146,113M259,293l-146,111l0,-62l104,-80l-104,-82l0,-63l146,113z"/>
<glyph unicode="&#x2039;" horiz-adv-x="389" d="M121,228l146,-111l0,62l-104,80l104,82l0,63l-146,-113z"/>
<glyph unicode="&#x203A;" horiz-adv-x="389" d="M268,293l-146,111l0,-62l104,-80l-104,-82l0,-63l146,113z"/>
<glyph unicode="h" horiz-adv-x="556" d="M132,0l0,279C132,315 133,344 145,377C164,430 215,478 289,478C385,478 423,431 423,338l0,-338l60,0l0,339C483,382 482,421 457,458C420,512 362,532 299,532C227,532 180,497 132,446l0,274l-60,0l0,-720z"/>
<glyph unicode="&#x2DD;" horiz-adv-x="333" d="M160,574l137,139l-77,0l-111,-139M322,574l137,139l-77,0l-111,-139z"/>
<glyph unicode="-" horiz-adv-x="333" d="M40,291l0,-62l253,0l0,62z"/>
<glyph unicode="i" horiz-adv-x="222" d="M141,0l0,518l-60,0l0,-518M144,631l0,89l-66,0l0,-89z"/>
<glyph unicode="&#xED;" horiz-adv-x="222" d="M138,0l0,518l-60,0l0,-518M84,574l137,139l-77,0l-111,-139z"/>
<glyph unicode="&#xEE;" horiz-adv-x="222" d="M138,0l0,518l-60,0l0,-518M95,676l82,-102l65,0l-113,139l-67,0l-114,-139l65,0z"/>
<glyph unicode="&#xEF;" horiz-adv-x="222" d="M138,0l0,518l-60,0l0,-518M-16,584l65,0l0,102l-65,0M143,584l65,0l0,102l-65,0z"/>
<glyph unicode="&#xEC;" horiz-adv-x="222" d="M138,0l0,518l-60,0l0,-518M128,574l51,0l-111,139l-78,0z"/>
<glyph unicode="&#x221E;" horiz-adv-x="774" d="M722,289C722,376 667,438 580,438C498,438 447,377 392,316C338,377 280,438 205,438C116,438 52,372 52,284C52,200 118,134 198,134C280,134 335,195 388,255C459,178 508,134 573,134C651,134 722,194 722,288M204,173C138,173 95,223 95,283C94,344 132,400 197,400C271,400 320,337 366,283C323,240 271,173 205,173M576,400C635,400 680,359 680,285C680,230 642,173 577,173C522,173 481,214 413,287C449,323 505,400 575,400z"/>
<glyph unicode="&#x222B;" horiz-adv-x="344" d="M329,828C319,835 296,843 277,843C246,843 215,832 191,806C153,768 140,707 140,601C140,448 153,248 153,91C153,-15 137,-60 116,-86C104,-101 86,-110 69,-110C49,-110 31,-101 23,-97l-12,-42C22,-146 48,-156 72,-156C107,-156 141,-140 161,-111C184,-79 206,-22 206,89C206,246 193,442 193,595C193,693 202,746 229,776C243,793 264,799 280,799C293,799 309,794 317,788z"/>
<glyph unicode="j" horiz-adv-x="222" d="M88,518l0,-595C88,-131 74,-156 5,-147l0,-53C18,-203 31,-204 44,-204C140,-204 148,-157 148,-69l0,587M151,720l-66,0l0,-89l66,0z"/>
<glyph unicode="k" horiz-adv-x="500" d="M128,0l0,196l98,93l194,-289l67,0l-217,331l194,187l-82,0l-254,-246l0,448l-60,0l0,-720z"/>
<glyph unicode="l" horiz-adv-x="222" d="M141,0l0,720l-60,0l0,-720z"/>
<glyph unicode="&lt;" horiz-adv-x="660" d="M159,255l421,186l0,64l-500,-223l0,-53l500,-235l0,64z"/>
<glyph unicode="&#x2264;" horiz-adv-x="568" d="M512,94l0,48l-409,198l0,2l409,195l0,49l-454,-226l0,-41M515,10l0,42l-463,0l0,-42z"/>
<glyph unicode="&#xAC;" horiz-adv-x="660" d="M516,112l64,0l0,266l-500,0l0,-60l436,0z"/>
<glyph unicode="&#x25CA;" horiz-adv-x="565" d="M508,346l-202,391l-47,0l-203,-391l202,-390l47,0M454,344l-152,-292C295,39 287,16 284,4l-3,0C278,16 272,33 263,53l-154,294l152,290C269,655 276,672 280,687l2,0C286,674 294,653 301,637z"/>
<glyph unicode="&#x142;" horiz-adv-x="222" d="M141,0l0,390l71,40l0,60l-71,-40l0,270l-60,0l0,-320l-71,-40l0,-60l71,40l0,-340z"/>
<glyph unicode="m" horiz-adv-x="833" d="M124,279C124,322 132,385 158,419C188,459 231,478 275,478C360,478 386,432 386,358l0,-358l60,0l0,279C446,322 454,385 480,419C510,459 553,478 597,478C682,478 708,432 708,358l0,-358l60,0l0,327C768,431 748,532 607,532C533,532 472,499 438,432C416,487 382,532 286,532C219,532 157,499 126,440l-2,0l0,78l-60,0l0,-518l60,0z"/>
<glyph unicode="&#xAF;" horiz-adv-x="333" d="M23,612l296,0l0,45l-296,0z"/>
<glyph unicode="&#x2212;" horiz-adv-x="660" d="M80,220l500,0l0,60l-500,0z"/>
<glyph unicode="&#xB5;" horiz-adv-x="556" d="M423,236C423,122 364,40 265,40C171,40 132,89 132,178l0,340l-60,0l0,-722l60,0l0,222C158,2 200,-14 256,-14C347,-14 391,36 423,72l0,-72l60,0l0,518l-60,0z"/>
<glyph unicode="&#xD7;" horiz-adv-x="660" d="M331,216l210,-210l37,36l-210,211l210,211l-37,36l-210,-210l-211,210l-37,-36l211,-211l-211,-211l37,-36z"/>
<glyph unicode="n" horiz-adv-x="556" d="M132,279C132,315 133,344 145,377C164,430 215,478 289,478C385,478 423,431 423,338l0,-338l60,0l0,339C483,382 482,421 457,458C420,512 362,532 299,532C227,532 180,497 132,446l0,72l-60,0l0,-518l60,0z"/>
<glyph unicode="9" horiz-adv-x="556" d="M53,155C64,40 148,-14 258,-14C407,-14 515,110 515,349C515,546 458,705 268,705C114,705 41,605 41,472C41,335 127,245 259,245C343,245 406,284 449,355l2,-2C445,226 422,40 255,40C177,40 133,80 118,155M268,651C367,649 426,578 426,474C426,379 368,299 268,299C165,299 105,363 105,470C105,580 160,649 268,651z"/>
<glyph unicode="&#x2260;" horiz-adv-x="568" d="M398,498l-32,16l-55,-117l-259,0l0,-40l243,0l-70,-150l-173,0l0,-40l155,0l-48,-104l32,-16l56,120l268,0l0,40l-251,0l70,150l181,0l0,40l-164,0z"/>
<glyph unicode="&#xF1;" horiz-adv-x="556" d="M132,279C132,315 133,344 145,377C164,430 215,478 289,478C385,478 423,431 423,338l0,-338l60,0l0,339C483,382 482,421 457,458C420,512 362,532 299,532C227,532 180,497 132,446l0,72l-60,0l0,-518l60,0M164,586C172,611 183,635 213,635C259,635 304,590 359,590C397,590 419,618 433,650C436,662 440,675 441,688l-38,0C398,664 388,638 359,638C324,638 273,674 236,681C202,689 168,673 148,645C138,629 130,610 128,586z"/>
<glyph unicode="#" horiz-adv-x="556" d="M504,287l-102,0l20,140l108,0l0,59l-100,0l31,212l-59,0l-31,-212l-136,0l32,212l-60,0l-32,-212l-120,0l0,-59l112,0l-21,-140l-119,0l0,-59l110,0l-34,-228l59,0l34,228l137,0l-31,-228l59,0l32,228l111,0M363,427l-20,-140l-138,0l22,140z"/>
<glyph unicode="o" horiz-adv-x="556" d="M278,-14C423,-14 518,95 518,259C518,411 440,532 278,532C118,532 38,410 38,259C38,78 146,-12 278,-14M454,259C454,148 404,40 278,40C163,40 102,130 102,259C102,371 152,478 278,478C405,478 453,381 454,259z"/>
<glyph unicode="&#xF3;" horiz-adv-x="556" d="M278,-14C423,-14 518,95 518,259C518,411 440,532 278,532C118,532 38,410 38,259C38,78 146,-12 278,-14M454,259C454,148 404,40 278,40C163,40 102,130 102,259C102,371 152,478 278,478C405,478 453,381 454,259M272,574l137,139l-77,0l-111,-139z"/>
<glyph unicode="&#xF4;" horiz-adv-x="556" d="M278,-14C423,-14 518,95 518,259C518,411 440,532 278,532C118,532 38,410 38,259C38,78 146,-12 278,-14M454,259C454,148 404,40 278,40C163,40 102,130 102,259C102,371 152,478 278,478C405,478 453,381 454,259M283,676l82,-102l65,0l-113,139l-67,0l-114,-139l65,0z"/>
<glyph unicode="&#xF6;" horiz-adv-x="556" d="M278,-14C423,-14 518,95 518,259C518,411 440,532 278,532C118,532 38,410 38,259C38,78 146,-12 278,-14M454,259C454,148 404,40 278,40C163,40 102,130 102,259C102,371 152,478 278,478C405,478 453,381 454,259M172,584l65,0l0,102l-65,0M331,584l65,0l0,102l-65,0z"/>
<glyph unicode="&#x153;" horiz-adv-x="944" d="M904,245C904,394 865,532 684,532C588,532 523,491 479,407C436,494 368,532 271,532C107,532 36,409 36,258C36,92 129,-14 267,-14C358,-14 438,28 479,112C515,40 586,-14 684,-14C793,-14 873,47 897,160l-61,0C820,88 762,40 686,40C549,40 503,171 511,245M100,249C96,390 158,478 266,478C386,478 447,390 447,269C447,134 386,40 272,40C156,40 99,136 100,249M511,295C516,394 579,478 681,478C792,478 840,400 840,295z"/>
<glyph unicode="&#x2DB;" horiz-adv-x="333" d="M149,0C110,-20 74,-56 74,-103C74,-160 124,-190 176,-190C194,-190 211,-187 228,-181l0,44C214,-143 201,-146 186,-146C152,-146 119,-128 119,-89C119,-49 167,-18 199,-2l0,2z"/>
<glyph unicode="&#xF2;" horiz-adv-x="556" d="M278,-14C423,-14 518,95 518,259C518,411 440,532 278,532C118,532 38,410 38,259C38,78 146,-12 278,-14M454,259C454,148 404,40 278,40C163,40 102,130 102,259C102,371 152,478 278,478C405,478 453,381 454,259M295,574l51,0l-111,139l-78,0z"/>
<glyph unicode="1" horiz-adv-x="556" d="M302,0l64,0l0,705l-51,0C294,584 227,573 120,566l0,-42l182,0z"/>
<glyph unicode="&#xBD;" horiz-adv-x="834" d="M179,-14l444,719l-51,0l-444,-719M158,316l42,0l0,423l-33,0C153,666 110,660 40,656l0,-26l118,0M548,284C546,341 588,391 648,391C704,391 749,359 749,304C749,204 622,205 526,103C497,72 491,40 491,0l299,0l0,32l-255,0C537,73 565,97 595,118C663,166 794,194 794,306C794,371 745,423 653,423C563,423 504,368 504,284z"/>
<glyph unicode="&#xBC;" horiz-adv-x="834" d="M689,0l42,0l0,104l63,0l0,33l-63,0l0,282l-38,0l-213,-282l0,-33l209,0M689,361l0,-224l-168,0M219,-14l444,719l-51,0l-444,-719M158,316l42,0l0,423l-33,0C153,666 110,660 40,656l0,-26l118,0z"/>
<glyph unicode="&#xB9;" horiz-adv-x="333" d="M205,316l42,0l0,423l-33,0C200,666 157,660 87,656l0,-26l118,0z"/>
<glyph unicode="&#xAA;" horiz-adv-x="334" d="M245,534C245,471 184,441 122,441C85,441 47,461 47,499C47,541 85,561 144,565C178,568 212,570 245,583M125,594C47,584 8,553 8,500C8,440 61,411 120,411C169,411 213,429 245,463C246,441 251,420 277,416C303,413 313,417 325,421l0,28C292,438 284,445 284,473l0,169C284,714 230,739 162,739C88,739 29,709 23,636l40,0C70,690 107,709 161,709C221,709 245,680 245,643C245,632 244,616 231,611C218,605 193,602 179,601z"/>
<glyph unicode="&#xBA;" horiz-adv-x="334" d="M167,411C261,411 323,477 323,575C323,666 272,739 167,739C63,739 11,666 11,575C11,467 81,413 167,411M50,575C50,642 85,709 167,709C250,709 284,648 284,575C284,509 249,441 167,441C92,441 50,498 50,575z"/>
<glyph unicode="&#xF8;" horiz-adv-x="556" d="M135,124C118,151 104,196 104,258C104,370 154,478 280,478C339,478 377,454 395,433M425,397C449,358 456,309 456,258C456,147 406,40 280,40C238,40 192,55 162,85M125,41C154,14 206,-14 280,-14C433,-14 520,97 520,258C520,331 502,397 466,445l55,65l-35,31l-52,-62C395,513 344,532 280,532C120,532 40,409 40,258C40,188 56,123 93,74l-58,-68l36,-29z"/>
<glyph unicode="&#xF5;" horiz-adv-x="556" d="M278,-14C423,-14 518,95 518,259C518,411 440,532 278,532C118,532 38,410 38,259C38,78 146,-12 278,-14M454,259C454,148 404,40 278,40C163,40 102,130 102,259C102,371 152,478 278,478C405,478 453,381 454,259M164,586C172,611 183,635 213,635C259,635 304,590 359,590C397,590 419,618 433,650C436,662 440,675 441,688l-38,0C398,664 388,638 359,638C324,638 273,674 236,681C202,689 168,673 148,645C138,629 130,610 128,586z"/>
<glyph unicode="p" horiz-adv-x="611" d="M139,257C139,382 201,478 314,478C415,478 490,405 491,275C496,145 438,40 314,40C205,40 139,140 139,257M139,83C177,20 251,-14 324,-14C482,-14 555,115 555,260C555,413 488,532 321,532C255,532 176,495 141,427l-2,0l0,91l-60,0l0,-722l60,0z"/>
<glyph unicode="&#xB6;" horiz-adv-x="650" d="M258,-146l60,0l0,799l128,0l0,-799l60,0l0,866l-217,0C149,720 66,650 66,526C66,423 156,335 258,336z"/>
<glyph unicode="(" horiz-adv-x="333" d="M226,739C118,595 55,459 55,276C55,86 116,-39 226,-191l51,0C185,-54 124,105 124,271C124,439 182,601 277,739z"/>
<glyph unicode=")" horiz-adv-x="333" d="M107,-191C215,-47 278,89 278,272C278,462 217,587 107,739l-51,0C148,602 209,443 209,277C209,109 151,-53 56,-191z"/>
<glyph unicode="&#x2202;" horiz-adv-x="537" d="M101,678C129,700 173,725 235,725C338,725 429,606 429,414C429,400 429,380 428,367l-1,0C411,398 351,468 255,468C145,468 44,371 44,217C44,103 104,-10 231,-10C401,-10 485,173 485,399C485,655 364,773 240,773C162,773 112,745 79,719M235,38C154,38 101,114 101,219C101,331 176,421 263,421C346,421 403,351 420,304C405,162 339,38 237,38z"/>
<glyph unicode="%" horiz-adv-x="889" d="M658,331C568,331 492,256 492,166C492,75 567,0 658,0C750,0 821,75 821,166C821,256 749,331 658,331M657,274C715,274 764,224 764,166C764,108 715,57 657,57C600,57 549,107 549,164C549,224 597,274 657,274M398,532C398,623 323,698 232,698C141,698 67,622 67,532C67,442 141,367 232,367C323,367 398,441 398,532M232,424C174,424 124,473 124,532C124,591 173,641 232,641C291,641 341,590 341,532C341,474 290,424 232,424M668,705l-52,0l-397,-719l52,0z"/>
<glyph unicode="." horiz-adv-x="278" d="M175,0l0,88l-73,0l0,-88z"/>
<glyph unicode="&#xB7;" horiz-adv-x="278" d="M139,398C114,398 90,376 90,350C90,324 112,301 139,301C166,301 187,324 187,350C187,376 165,398 139,398z"/>
<glyph unicode="&#x2030;" horiz-adv-x="1000" d="M836,299C755,299 686,230 686,149C686,67 754,0 836,0C918,0 985,67 985,149C985,230 918,299 836,299M836,57C787,57 743,100 743,149C743,199 786,242 836,242C885,242 928,198 928,149C928,101 884,57 836,57M163,698C82,698 14,630 14,549C14,468 81,399 163,399C245,399 313,466 313,549C313,631 244,698 163,698M163,641C212,641 257,598 256,549C256,500 212,456 163,456C114,456 71,500 71,549C71,598 113,641 163,641M473,299C392,299 324,230 324,149C324,68 391,0 473,0C555,0 623,66 623,149C623,231 554,299 473,299M473,57C425,57 381,100 381,149C381,198 423,242 473,242C523,242 566,198 566,149C566,100 521,57 473,57M139,-14l407,719l-53,0l-407,-719z"/>
<glyph unicode="&#x3C0;" horiz-adv-x="561" d="M533,464l6,50l-391,0C74,514 36,503 11,489l10,-38C42,459 70,464 138,464C132,323 101,104 62,0l57,0C156,91 189,329 195,464l196,0l0,-325C391,54 399,15 408,0l56,0C456,25 449,60 449,146l0,318z"/>
<glyph unicode="+" horiz-adv-x="660" d="M300,280l-220,0l0,-60l220,0l0,-220l60,0l0,220l220,0l0,60l-220,0l0,220l-60,0z"/>
<glyph unicode="&#xB1;" horiz-adv-x="660" d="M300,330l-220,0l0,-60l220,0l0,-170l60,0l0,170l220,0l0,60l-220,0l0,170l-60,0M80,0l500,0l0,60l-500,0z"/>
<glyph unicode="&#x220F;" horiz-adv-x="692" d="M665,640l0,52l-639,0l0,-52l113,0l0,-736l56,0l0,736l301,0l0,-736l56,0l0,736z"/>
<glyph unicode="q" horiz-adv-x="611" d="M472,261C472,136 410,40 297,40C196,40 121,113 120,243C115,373 173,478 297,478C406,478 472,378 472,261M472,427l-2,0C435,495 356,532 290,532C123,532 56,413 56,260C56,115 129,-14 287,-14C360,-14 434,20 472,83l0,-287l60,0l0,722l-60,0z"/>
<glyph unicode="?" horiz-adv-x="500" d="M274,182C274,222 273,266 295,301C353,393 472,435 472,551C472,664 390,739 254,739C124,739 28,649 38,516l61,0C96,611 154,685 252,685C351,685 408,628 408,556C408,482 329,429 271,368C219,313 215,255 216,182M283,0l0,88l-73,0l0,-88z"/>
<glyph unicode="&#xBF;" horiz-adv-x="500" d="M401,16C404,-79 346,-153 248,-153C149,-153 92,-96 92,-24C92,50 171,103 229,164C281,219 285,277 284,350l-58,0C226,310 227,266 205,231C147,139 28,97 28,-19C28,-132 110,-207 246,-207C376,-207 472,-117 462,16M217,532l0,-88l73,0l0,88z"/>
<glyph unicode="&quot;" horiz-adv-x="278" d="M57,494l52,0l0,226l-52,0M168,494l52,0l0,226l-52,0z"/>
<glyph unicode="&#x201E;" horiz-adv-x="389" d="M303,88l-73,0l0,-88l34,0l0,-34C264,-74 246,-90 230,-100l0,-37C272,-124 303,-88 303,-30M152,88l-73,0l0,-88l34,0l0,-34C113,-74 95,-90 79,-100l0,-37C121,-124 152,-88 152,-30z"/>
<glyph unicode="&#x201C;" horiz-adv-x="389" d="M237,495l73,0l0,88l-34,0l0,34C276,657 294,673 310,683l0,37C268,707 237,671 237,613M86,495l73,0l0,88l-34,0l0,34C125,657 143,673 159,683l0,37C117,707 86,671 86,613z"/>
<glyph unicode="&#x201D;" horiz-adv-x="389" d="M303,720l-73,0l0,-88l34,0l0,-34C264,558 246,542 230,532l0,-37C272,508 303,544 303,602M152,720l-73,0l0,-88l34,0l0,-34C113,558 95,542 79,532l0,-37C121,508 152,544 152,602z"/>
<glyph unicode="&#x2018;" horiz-adv-x="222" d="M69,495l73,0l0,88l-34,0l0,34C108,657 126,673 142,683l0,37C100,707 69,671 69,613z"/>
<glyph unicode="&#x2019;" horiz-adv-x="222" d="M153,720l-73,0l0,-88l34,0l0,-34C114,558 96,542 80,532l0,-37C122,508 153,544 153,602z"/>
<glyph unicode="&#x201A;" horiz-adv-x="222" d="M153,88l-73,0l0,-88l34,0l0,-34C114,-74 96,-90 80,-100l0,-37C122,-124 153,-88 153,-30z"/>
<glyph unicode="'" horiz-adv-x="222" d="M85,494l52,0l0,226l-52,0z"/>
<glyph unicode="r" horiz-adv-x="333" d="M135,254C135,370 171,470 306,467l0,65C219,532 170,504 137,421l-2,0l0,97l-60,0l0,-518l60,0z"/>
<glyph unicode="&#x221A;" horiz-adv-x="564" d="M562,820l-45,0l-192,-835C321,-37 316,-63 313,-81l-1,0C308,-62 301,-36 295,-13l-136,388l-124,-49l13,-36l75,27l163,-468l54,0z"/>
<glyph unicode="&#xAE;" horiz-adv-x="800" d="M401,-19C610,-19 779,151 779,361C779,569 610,739 401,739C191,739 21,569 21,361C21,151 191,-19 401,-19M401,31C216,31 81,175 81,361C81,545 216,689 401,689C585,689 719,545 719,361C719,175 585,31 401,31M462,344C537,346 595,377 595,460C595,530 557,572 445,572l-185,0l0,-423l52,0l0,195l95,0l121,-195l62,0M312,385l0,150l121,0C485,535 539,527 539,461C539,375 451,385 391,385z"/>
<glyph unicode="&#x2DA;" horiz-adv-x="333" d="M167,578C221,578 266,623 266,677C266,730 221,777 167,777C114,777 67,730 67,677C67,623 113,578 167,578M167,611C132,611 100,641 100,677C100,713 131,744 167,744C203,744 233,712 233,677C233,642 202,611 167,611z"/>
<glyph unicode="s" horiz-adv-x="500" d="M46,162C51,64 121,-14 243,-14C365,-14 454,38 454,137C454,336 122,248 122,389C122,442 163,478 239,478C314,478 368,449 379,369l61,0C425,486 352,532 240,532C125,532 58,470 58,384C58,180 390,286 390,136C390,86 349,40 262,40C172,40 126,73 107,162z"/>
<glyph unicode="&#x161;" horiz-adv-x="500" d="M46,162C51,64 121,-14 243,-14C365,-14 454,38 454,137C454,336 122,248 122,389C122,442 163,478 239,478C314,478 368,449 379,369l61,0C425,486 352,532 240,532C125,532 58,470 58,384C58,180 390,286 390,136C390,86 349,40 262,40C172,40 126,73 107,162M255,611l-82,102l-65,0l114,-139l67,0l113,139l-65,0z"/>
<glyph unicode="&#xA7;" horiz-adv-x="556" d="M363,341C403,317 454,283 454,230C454,175 409,141 365,117l-178,115C148,258 102,292 102,343C102,392 137,425 190,447M281,102C328,71 392,31 392,-33C392,-95 337,-127 281,-127C198,-127 155,-81 155,1l-61,0C99,-110 167,-181 280,-181C376,-181 456,-128 456,-26C456,34 412,71 398,84C456,123 508,163 508,240C508,414 166,451 166,588C166,654 215,685 278,685C363,685 400,643 402,560l54,0C457,670 394,739 283,739C165,739 102,672 102,594C102,545 124,514 155,479C96,454 48,402 48,335C48,267 86,224 150,184z"/>
<glyph unicode=";" horiz-adv-x="278" d="M175,88l-73,0l0,-88l34,0l0,-34C136,-74 118,-90 102,-100l0,-37C144,-124 175,-88 175,-30M175,404l0,88l-73,0l0,-88z"/>
<glyph unicode="7" horiz-adv-x="556" d="M59,634l372,0C296,468 166,204 152,0l70,0C230,138 306,410 508,638l0,60l-449,0z"/>
<glyph unicode="6" horiz-adv-x="556" d="M503,532C490,645 408,705 297,705C90,705 41,490 41,323C41,74 147,-14 288,-14C431,-14 514,73 514,215C514,356 432,442 290,442C187,442 145,386 105,332C115,465 130,651 303,651C378,651 423,604 437,532M288,388C398,388 450,326 450,217C450,132 408,40 289,40C173,40 129,134 129,213C129,308 189,388 288,388z"/>
<glyph unicode="/" horiz-adv-x="278" d="M288,739l-56,0l-235,-829l56,0z"/>
<glyph unicode=" " horiz-adv-x="278"/>
<glyph unicode="&#xA3;" horiz-adv-x="556" d="M184,365C157,416 117,459 117,519C117,608 197,651 277,651C372,651 433,593 437,488l66,0C505,622 408,705 276,705C128,705 53,627 53,522C53,442 89,402 106,365l-81,0l0,-42l99,0C138,295 145,266 145,235C145,161 97,97 39,55l35,-58C107,12 141,30 179,30C216,30 248,19 277,8C306,-3 332,-14 356,-14C436,-14 471,2 530,56l-34,51C465,77 435,50 388,50C355,50 331,60 305,71C279,82 250,92 205,92C173,92 141,78 116,65l-2,2C163,117 210,180 210,255C210,277 205,302 199,323l151,0l0,42z"/>
<glyph unicode="&#x2211;" horiz-adv-x="552" d="M528,-96l0,55l-430,0l0,3l269,342l-250,335l0,3l396,0l0,50l-478,0l0,-40l266,-355l-278,-354l0,-39z"/>
<glyph unicode="t" horiz-adv-x="278" d="M254,47C238,43 221,40 205,40C155,40 153,62 153,113l0,355l97,0l0,50l-97,0l0,144l-60,0l0,-144l-73,0l0,-50l73,0l0,-379C93,12 126,-14 185,-14C214,-14 240,-5 254,-2z"/>
<glyph unicode="&#xFE;" horiz-adv-x="611" d="M139,257C139,382 201,478 314,478C415,478 490,405 491,275C496,145 438,40 314,40C205,40 139,140 139,257M139,83C177,20 251,-14 324,-14C482,-14 555,115 555,260C555,413 488,532 321,532C255,532 176,495 141,427l-2,0l0,293l-60,0l0,-924l60,0z"/>
<glyph unicode="3" horiz-adv-x="556" d="M221,340C345,349 444,313 448,199C452,116 375,40 273,40C169,40 98,97 98,204l-64,0C49,40 122,-14 285,-14C430,-10 512,84 512,200C512,265 489,342 387,374C455,403 487,458 487,531C487,649 397,705 286,705C228,705 170,698 126,658C79,614 58,563 58,500l64,0C122,588 183,651 273,651C354,651 423,614 423,527C423,419 340,391 221,392z"/>
<glyph unicode="&#xBE;" horiz-adv-x="834" d="M689,361l0,-224l-168,0M689,0l42,0l0,104l63,0l0,33l-63,0l0,282l-38,0l-213,-282l0,-33l209,0M162,520C242,525 307,504 309,435C312,386 262,340 196,340C128,340 82,374 82,438l-42,0C50,340 97,308 203,308C298,310 351,366 351,436C351,475 336,521 270,540C314,558 335,591 335,635C335,705 276,739 204,739C166,739 129,735 100,711C69,684 56,654 56,616l41,0C97,669 137,707 196,707C248,707 293,684 293,632C293,567 239,551 162,551M259,-14l444,719l-51,0l-444,-719z"/>
<glyph unicode="&#xB3;" horiz-adv-x="333" d="M133,520C213,525 278,504 280,435C283,386 233,340 167,340C99,340 53,374 53,438l-42,0C21,340 68,308 174,308C269,310 322,366 322,436C322,475 307,521 241,540C285,558 306,591 306,635C306,705 247,739 175,739C137,739 100,735 71,711C40,684 27,654 27,616l41,0C68,669 108,707 167,707C219,707 264,684 264,632C264,567 210,551 133,551z"/>
<glyph unicode="&#x2DC;" horiz-adv-x="333" d="M52,586C60,611 71,635 101,635C147,635 192,590 247,590C285,590 307,618 321,650C324,662 328,675 329,688l-38,0C286,664 276,638 247,638C212,638 161,674 124,681C90,689 56,673 36,645C26,629 18,610 16,586z"/>
<glyph unicode="&#x2122;" horiz-adv-x="940" d="M859,720l-96,0l-118,-311l-2,0l-120,311l-96,0l0,-421l52,0l0,377l2,0l145,-377l34,0l145,377l2,0l0,-377l52,0M349,720l-320,0l0,-40l134,0l0,-381l52,0l0,381l134,0z"/>
<glyph unicode="2" horiz-adv-x="556" d="M137,474C133,569 198,651 290,651C377,651 445,598 445,506C445,340 250,342 103,172C58,120 49,67 48,0l461,0l0,54l-393,0C119,121 162,161 208,196C313,276 515,323 515,510C515,618 440,705 298,705C159,705 69,613 69,474z"/>
<glyph unicode="&#xB2;" horiz-adv-x="333" d="M72,600C70,657 112,707 172,707C228,707 273,675 273,620C273,520 146,521 50,419C21,388 15,356 15,316l299,0l0,32l-255,0C61,389 89,413 119,434C187,482 318,510 318,622C318,687 269,739 177,739C87,739 28,684 28,600z"/>
<glyph unicode="u" horiz-adv-x="556" d="M423,236C423,122 364,40 265,40C171,40 132,89 132,178l0,340l-60,0l0,-341C72,69 118,-14 256,-14C347,-14 391,36 423,72l0,-72l60,0l0,518l-60,0z"/>
<glyph unicode="&#xFA;" horiz-adv-x="556" d="M423,236C423,122 364,40 265,40C171,40 132,89 132,178l0,340l-60,0l0,-341C72,69 118,-14 256,-14C347,-14 391,36 423,72l0,-72l60,0l0,518l-60,0M272,574l137,139l-77,0l-111,-139z"/>
<glyph unicode="&#xFB;" horiz-adv-x="556" d="M423,236C423,122 364,40 265,40C171,40 132,89 132,178l0,340l-60,0l0,-341C72,69 118,-14 256,-14C347,-14 391,36 423,72l0,-72l60,0l0,518l-60,0M283,676l82,-102l65,0l-113,139l-67,0l-114,-139l65,0z"/>
<glyph unicode="&#xFC;" horiz-adv-x="556" d="M423,236C423,122 364,40 265,40C171,40 132,89 132,178l0,340l-60,0l0,-341C72,69 118,-14 256,-14C347,-14 391,36 423,72l0,-72l60,0l0,518l-60,0M172,584l65,0l0,102l-65,0M331,584l65,0l0,102l-65,0z"/>
<glyph unicode="&#xF9;" horiz-adv-x="556" d="M423,236C423,122 364,40 265,40C171,40 132,89 132,178l0,340l-60,0l0,-341C72,69 118,-14 256,-14C347,-14 391,36 423,72l0,-72l60,0l0,518l-60,0M295,574l51,0l-111,139l-78,0z"/>
<glyph unicode="_" horiz-adv-x="500" d="M0,-75l0,-50l500,0l0,50z"/>
<glyph unicode="&#xA0;" horiz-adv-x="278"/>
<glyph unicode="&#xAD;" horiz-adv-x="333" d="M40,291l0,-62l253,0l0,62z"/>
<glyph unicode="&#x2C9;" horiz-adv-x="333" d="M23,612l296,0l0,45l-296,0z"/>
<glyph unicode="&#x3A9;" horiz-adv-x="725" d="M207,48l-154,0l0,-48l233,0l0,35C205,86 125,211 125,361C125,523 218,655 365,655C520,655 600,495 600,363C600,203 520,88 439,35l0,-35l233,0l0,48l-156,0l0,3C586,107 658,222 658,372C658,551 541,704 366,704C199,704 67,570 67,368C67,225 133,115 207,51z"/>
<glyph unicode="&#x3BC;" horiz-adv-x="556" d="M423,236C423,122 364,40 265,40C171,40 132,89 132,178l0,340l-60,0l0,-722l60,0l0,222C158,2 200,-14 256,-14C347,-14 391,36 423,72l0,-72l60,0l0,518l-60,0z"/>
<glyph unicode="&#x2215;" horiz-adv-x="167" d="M-113,-14l444,719l-51,0l-444,-719z"/>
<glyph unicode="&#x2219;" horiz-adv-x="278" d="M139,398C114,398 90,376 90,350C90,324 112,301 139,301C166,301 187,324 187,350C187,376 165,398 139,398z"/>
<glyph unicode="v" horiz-adv-x="500" d="M215,0l67,0l201,518l-65,0l-168,-444l-168,444l-65,0z"/>
<glyph unicode="w" horiz-adv-x="722" d="M396,518l-67,0l-120,-442l-134,442l-60,0l158,-518l72,0l115,435l2,0l113,-435l64,0l168,518l-61,0l-136,-438z"/>
<glyph unicode="x" horiz-adv-x="500" d="M409,0l72,0l-194,268l187,250l-76,0l-147,-206l-143,206l-74,0l183,-250l-199,-268l73,0l161,224z"/>
<glyph unicode="y" horiz-adv-x="500" d="M68,-197C84,-201 104,-204 125,-204C208,-204 240,-123 289,7l193,511l-65,0l-166,-445l-166,445l-67,0l201,-522C196,-49 186,-147 118,-147C101,-147 84,-144 68,-141z"/>
<glyph unicode="&#xFD;" horiz-adv-x="500" d="M68,-197C84,-201 104,-204 125,-204C208,-204 240,-123 289,7l193,511l-65,0l-166,-445l-166,445l-67,0l201,-522C196,-49 186,-147 118,-147C101,-147 84,-144 68,-141M244,574l137,139l-77,0l-111,-139z"/>
<glyph unicode="&#xFF;" horiz-adv-x="500" d="M68,-197C84,-201 104,-204 125,-204C208,-204 240,-123 289,7l193,511l-65,0l-166,-445l-166,445l-67,0l201,-522C196,-49 186,-147 118,-147C101,-147 84,-144 68,-141M144,584l65,0l0,102l-65,0M303,584l65,0l0,102l-65,0z"/>
<glyph unicode="&#xA5;" horiz-adv-x="556" d="M80,720l-76,0l171,-286l-111,0l0,-54l144,0l38,-66l0,-42l-182,0l0,-54l182,0l0,-218l64,0l0,218l182,0l0,54l-182,0l0,42l38,66l144,0l0,54l-111,0l171,286l-73,0l-202,-347z"/>
<glyph unicode="z" horiz-adv-x="500" d="M467,0l0,50l-357,0l344,415l0,53l-398,0l0,-50l321,0l-344,-415l0,-53z"/>
<glyph unicode="&#x17E;" horiz-adv-x="500" d="M467,0l0,50l-357,0l344,415l0,53l-398,0l0,-50l321,0l-344,-415l0,-53M255,611l-82,102l-65,0l114,-139l67,0l113,139l-65,0z"/>
<glyph unicode="0" horiz-adv-x="556" d="M452,347C452,205 430,40 278,40C143,40 103,159 103,340C103,496 136,651 276,651C425,651 452,499 452,347M278,705C75,705 39,525 39,347C39,152 83,-14 278,-14C472,-14 516,153 516,340C516,504 487,705 278,705z"/>
</font>
</svg>
